<?xml version="1.0" standalone="no"?><!DOCTYPE svg PUBLIC "-//W3C//DTD SVG 1.1//EN" "http://www.w3.org/Graphics/SVG/1.1/DTD/svg11.dtd"><svg t="1488980797192" class="icon" style="" viewBox="0 0 1025 1024" version="1.1" xmlns="http://www.w3.org/2000/svg" p-id="7534" xmlns:xlink="http://www.w3.org/1999/xlink" width="64.0625" height="64"><defs><style type="text/css"></style></defs><path d="M519.9257 123.317109c-205.032871-2.635926-361.578626 162.632758-363.917575 353.889996-2.41473 197.397492 157.839141 362.652863 358.319048 362.175652 197.977109-0.006144 357.705637-158.279486 358.249412-357.783466C873.122408 282.04206 712.813238 125.798403 519.9257 123.317109zM506.74402 826.985506C324.933721 823.509852 168.056171 674.234911 168.412544 480.774924c0.192523-191.556263 155.499167-342.197297 340.188095-345.154778 191.79794-3.072175 351.290936 151.721416 351.654476 344.713409C860.618655 674.054677 700.84302 830.696694 506.74402 826.985506z" p-id="7535" fill="#e6e6e6"></path><path d="M514.334341 149.92829c-184.450322 0.010241-334.041696 150.533508-331.606486 335.964878 2.370695 180.609079 149.901664 327.292128 331.942377 326.777026 183.286991-0.245774 330.185093-147.0896 331.22656-331.111865C846.931091 299.244193 697.533263 149.918049 514.334341 149.92829zM466.271185 168.005992 466.271185 168.005992l25.86669 0 23.831886 61.149598 22.886681-61.149598 26.558954 0c0 0 0 57.844961 0 86.97635-5.625153 0-11.04959 0-17.33014 0 0-15.345515 0-48.310978 0-58.21567l-22.464768 58.162419-19.405906 0-22.577415-59.777359 0 59.777359-17.365982 0L466.271185 168.005992zM245.330592 311.516508c16.231325-19.000379 31.880985-37.85739 48.193211-56.123519 5.810507-6.506867 13.824788-10.982002 22.870296-6.617465 9.448987 4.558084 15.946637 11.869861 15.473522 23.391541-0.03789 0.933941 0.089093 1.874027 0.049155 1.122368 7.298464 0.59293 14.734152-0.440345 20.752543 2.008178 15.116126 6.149471 17.956864 22.852887 6.689149 37.041215-11.174525 14.073634-22.99011 27.636263-34.548657 41.403704-3.8607 4.60007-7.793084 9.139721-12.136116 14.223147C290.082967 349.029815 268.020653 330.537369 245.330592 311.516508zM514.541201 693.237339c-114.962841 0.784429-211.926832-94.615825-212.087609-208.932485-0.16897-119.921332 93.061304-214.308792 212.018997-214.646731 114.831761-0.326675 209.979073 94.032112 211.856172 206.926355C728.244774 591.919051 636.721605 692.404779 514.541201 693.237339zM711.616114 369.773141l-15.624059-20.279428 30.608081-45.12206-50.694986 20.736158-17.240023-19.702883c0 0 40.686863-51.934096 55.174217-70.49925 0.750635 0.573473 15.136607 15.783812 15.136607 15.783812l-33.92603 43.8553 50.722635-21.412036 14.722887 18.504735-32.42476 45.825588c0 0 34.373543-16.185243 50.377528-23.711048 4.607239 5.681476 13.744911 16.953286 13.744911 16.953286L711.616114 369.773141z" p-id="7536" fill="#e6e6e6"></path><path d="M514.16742 481.072925c0-66.34567 0-131.835227 0-197.297134-108.616751-2.088055-200.544423 91.377753-197.516282 198.029336 65.532567 0 131.090736 0 197.336048 0 0 65.975985 0 131.268922 0 197.088226 112.947494 2.292867 202.219783-96.692615 197.661699-197.8235C646.163423 481.072925 580.634952 481.072925 514.16742 481.072925z" p-id="7537" fill="#e6e6e6"></path><path d="M342.722639 309.212377c3.998948-4.974876 2.765982-11.829922-2.058357-15.57388-4.759823-3.692754-10.886765-3.365056-15.012696 1.40296-8.893947 10.276426-17.518567 20.784289-26.607085 31.61985 5.631297 4.771088 10.950256 9.277969 17.029067 14.427958C325.314671 330.081663 334.21169 319.802165 342.722639 309.212377z" p-id="7538" fill="#e6e6e6"></path><path d="M311.79198 273.487077c-5.020958-4.169966-11.122298-3.851484-15.423343 1.170499-8.030666 9.378327-15.877001 18.91231-24.501621 29.220482 5.557565 4.690187 10.653279 8.989184 16.103318 13.588231 8.630764-10.247752 16.985032-19.941489 25.066901-29.85847C317.039255 282.69541 316.332655 277.25766 311.79198 273.487077z" p-id="7539" fill="#e6e6e6"></path></svg>