<?xml version="1.0" standalone="no"?><!DOCTYPE svg PUBLIC "-//W3C//DTD SVG 1.1//EN" "http://www.w3.org/Graphics/SVG/1.1/DTD/svg11.dtd"><svg t="1488981488609" class="icon" style="" viewBox="0 0 1024 1024" version="1.1" xmlns="http://www.w3.org/2000/svg" p-id="9941" xmlns:xlink="http://www.w3.org/1999/xlink" width="64" height="64"><defs><style type="text/css"></style></defs><path d="M306.1664 281.102933l47.956267-3.8272 54.3776 235.153067c0 0 8.874667 58.183467 70.7232 65.649067l64.379733 0.0032c0 0 50.48 1.211733 71.8816-67.035733l54.152533-235.223467 47.997867 3.613867-29.4688 464.881067-69.515733 3.613867-26.212267-89.329067c0 0-7.175467-37.784533-56.126933-39.182933l-49.6128 0.0288c0 0-43.277867 0.608-52.4576 40.407467l-28.331733 88.2144-68.058667-2.128L306.1664 281.102933 306.1664 281.102933 306.1664 281.102933zM306.1664 281.102933" p-id="9942" fill="#e6e6e6"></path><path d="M427.5072 230.176C111.317333 230.359467 156.5952 353.947733 179.234133 606.122667c13.626667 151.406933 87.557333 192.2976 229.7824 187.396267l206.331733-0.141867c142.200533 4.785067 216.106667-36.226133 229.537067-187.595733 22.360533-252.263467 67.5008-375.895467-248.693333-375.684267L427.5072 230.176 427.5072 230.176 427.5072 230.176zM431.038933 769.925333 431.038933 769.925333c-130.0064 0.113067-209.6-10.6304-219.262933-167.083733-9.732267-204.552533-65.192533-342.317867 168.487467-345.8976l263.224533-0.1248c233.668267 3.3056 178.312533 141.146667 168.887467 345.728-9.521067 156.453333-89.064533 167.2256-219.1136 167.3088L431.038933 769.925333 431.038933 769.925333 431.038933 769.925333zM431.038933 769.925333" p-id="9943" fill="#e6e6e6"></path></svg>