<?xml version="1.0" standalone="no"?><!DOCTYPE svg PUBLIC "-//W3C//DTD SVG 1.1//EN" "http://www.w3.org/Graphics/SVG/1.1/DTD/svg11.dtd"><svg t="1488980223358" class="icon" style="" viewBox="0 0 1024 1024" version="1.1" xmlns="http://www.w3.org/2000/svg" p-id="1031" xmlns:xlink="http://www.w3.org/1999/xlink" width="64" height="64"><defs><style type="text/css"></style></defs><path d="M951.75424 281.8432c0.54656-9.04192 3.18336-17.38624 6.31168-27.168 3.42656-10.92224 9.73824-26.80192 11.7248-43.1808 5.85472-52.17792-24.52864-100.22656-75.26016-106.99904-13.30304-1.6576-67.05152-10.17728-104.63872 45.64736-7.18464 10.5728-17.45536 37.69984-16.44544 58.55616-18.528-43.616-40.88832-93.34784-65.70112-130.21312-5.3504-7.03488-33.09056-39.81696-40.90368-42.02496-34.55616-9.08416-75.68128-18.36544-108.85376-23.4112-13.56544 1.0688-114.31552 36.91008-117.59616 41.5616l-11.6416 12.0768c-24.08832 5.98656-73.42592 13.65248-76.9408 17.9776-11.0528 13.12512-3.40864 24.89856 0 30.46656 1.20064 1.81376 9.30176 29.63968 23.45472 29.63968h38.30784c18.58944-31.0784 73.38368-32.54272 88.36864 9.1712-14.368 5.83424-25.8368 12.68992-53.94304 8.80384-33.98912-4.60928-68.32128 7.07584-68.08192 11.50976 0.30848 7.64416 40.19072 10.1568 50.6688 10.1568 17.41312 0.4352 43.83872 2.07232 66.7264 0.4352-11.24736 16.09856-33.92 22.21312-49.49248 22.21312h-61.0432c2.86208 13.0816 8.14592 24.96384 15.26784 34.79296h25.26848c16.576 0.95872 11.33568 6.90048 7.88224 17.29536-6.44352 18.4576-18.03648 46.19392-36.84352 62.28992-61.96096-53.33376-144.93312-120.86528-203.424-163.3024-17.31968-12.5376-87.90784-21.22624-123.2256-7.79648-10.06976 3.60192-16.38144 11.75168-20.24448 18.52032l17.75232 5.11104c-32.128 19.24096-12.38144 54.9952-12.38144 54.9952 15.8144-3.12192 40.2944-10.98752 65.8048 26.64576l-21.6 17.18912c11.07328 7.59936 77.31456 15.57248 96.16768 3.73376 0 0 78.2976 103.48416 86.81472 107.95776 4.50176 2.4256-31.8656 4.5888-72.61952 7.49184-34.90304 0.50176-67.66336 1.04832-93.1712 1.72672-23.04384 0.28416-39.92704 17.888-45.1904 32.65024-5.984 14.8736-11.83872 46.14912-9.12896 60.13056l12.66944-4.45696c16.13952 26.8224 16.90112 32.93696 37.95456 40.57856 11.42656-29.46048 55.71712-26.40384 55.71712-26.40384l-0.45952 26.86464c60.73984-0.32896 66.87872-44.33664 66.87872-44.33664l119.2704-1.78944 75.1552 90.7008c-61.78688 63.86432-105.0752 142.92608-151.488 227.62624 22.58304 19.98464 14.50368 61.32736-22.38592 65.23776-25.14048 2.5792-52.6592-20.35456-86.5792-12.90752-41.3632 8.93184-32.80256 41.75872-65.28 84.85248 32.47744 8.0768 66.41792 29.10976 89.00096 54.6624 44.61952-28.14848 134.95424-6.57536 170.09536 5.22496 7.97312 2.68544 11.07328-11.6416 6.2016-23.50336-4.10368-9.87008-10.22208-24.832 0.32896-49.59616 9.61024-21.888 116.02176-129.47456 191.19104-197.55136 0.33152-0.52608 26.49344 18.95808 52.85504 38.09024 40.68992 29.74592 95.0336 59.88736 95.0336 59.88736l10.8096-0.8512c49.3824-10.54976 57.9008 32.89216 52.33024 47.45728-5.46048 14.52544-19.85664 23.24096-37.78816 22.23488-20.11264-1.63712-41.60256-11.05024-68.20608 4.28032-26.49344 14.85312-15.19872 64.31744-31.33824 84.9344 44.90368 0 80.6784 22.67392 98.23744 33.22112 73.05856-30.40384 94.2656-20.56832 168.30592-8.256 5.04448 0.80896 9.30176-13.32352 3.45216-21.7536-5.15584-7.77216-13.41312-27.9744-12.01408-44.91776V760.28672c-47.22304 6.11328-68.88576-13.43104-77.0112-38.592-6.06976-18.89408-23.91936-57.70368-35.42912-81.83808 0 0 72.4288-1.87904 111.80288-49.03296 14.56896-17.42976 27.456-53.07392 20.70784-86.31296-9.3504-46.26048-15.42016-61.61408-31.99488-102.19264-13.45536-33.7024-38.8544-95.40352-49.18912-130.32704-14.63168-49.53344-16.8384-71.63648-1.21728-99.2 9.45408-16.37888 30.07104-32.21376 53.69984-20.81536 15.2064 7.62368 11.5584 11.97056 10.33344 14.83136-19.02592 29.17888-26.62656 66.94016-18.58432 93.8048 10.784 37.39136 46.4064 67.61856 61.91616 77.3184 0 0 26.16064 16.94592 31.44832 12.77568 12.38272-9.28256-19.80544-54.3168-18.58048-68.86272zM519.58912 72.39296c-12.20864 5.06624-33.80864 12.8832-51.80416 18.67264-4.06272-9.56544-4.39424-17.31968-2.6432-28.6976 14.85312-2.40512 36.8-5.24288 51.06432-5.24288 9.12768-0.00128 11.43936 11.33568 3.38304 15.26784z m309.98656 314.78912c19.43424 48.3328 26.11968 69.47328 32.7168 102.32448 4.60928 26.40256 2.07616 50.22976-8.45184 64.03712-11.92448 16.1152-43.79648 41.62688-106.6944 26.9056v-0.08576c-19.7248-28.2624-54.38464-79.8272-72.3392-106.71232 12.73472-45.62688 18.47936-56.72192 28.34816-99.98848 0 0 27.456 15.05024 28.72192 9.63072 4.56704-19.0016 35.8656-109.77152 41.51936-139.03744 0 0 4.9344 13.03936 11.18464 31.75808 14.11328 41.51808 30.88256 75.24096 44.99456 111.168z" fill="#e6e6e6" p-id="1032"></path></svg>