<?xml version="1.0" standalone="no"?><!DOCTYPE svg PUBLIC "-//W3C//DTD SVG 1.1//EN" "http://www.w3.org/Graphics/SVG/1.1/DTD/svg11.dtd"><svg t="1488980357416" class="icon" style="" viewBox="0 0 1026 1024" version="1.1" xmlns="http://www.w3.org/2000/svg" p-id="3778" xmlns:xlink="http://www.w3.org/1999/xlink" width="64.125" height="64"><defs><style type="text/css"></style></defs><path d="M1017.547284 472.834041v78.339532c-1.685212 10.464052-3.587421 20.897648-5.032796 31.397232-28.844034 209.824166-184.364516 380.247611-391.132966 427.863743-25.256613 5.817028-51.099496 9.110045-76.670817 13.571797h-78.339533c-10.358726-1.767696-20.680652-3.78919-31.078716-5.263751-111.085696-15.772217-206.933418-63.276678-284.54963-143.682119C21.27461 740.937621-27.002663 579.532855 14.519802 398.60602 60.922784 196.421144 188.592848 66.260063 391.154612 13.366221c24.561209-6.41472 50.122378-9.004719 75.217829-13.366221h78.339533c10.464052 1.68775 20.897648 3.58869 31.397232 5.030257C785.934641 33.87556 956.356817 189.394773 1003.974218 396.161954c5.815759 25.26042 9.110045 51.100765 13.573066 76.672087zM509.505248 976.782329c247.688147 1.933933 459.820597-198.947694 462.578103-460.215251 2.76385-261.761193-203.658167-469.123528-456.143079-471.00924C256.024184 43.612484 49.034931 251.762858 49.177057 511.463219c0.139588 257.219495 205.871277 465.18206 460.328191 465.31911z" fill="#e6e6e6" p-id="3779"></path><path d="M719.782442 767.926399L629.091877 613.646984c-18.113495 81.407939-66.234683 148.816433-111.276044 221.728517-30.638379-52.176865-60.069953-102.30305-89.783242-152.907642-18.136337 81.646508-66.002459 148.74537-110.352223 220.374509-9.630329-15.133918-18.360947-28.544553-26.78447-42.148074-30.376968-49.033588-62.644724-97.534203-76.646707-154.227387-8.408296-34.048142-14.449935-69.449022-15.425784-104.412103-2.232145-80.126264-0.708094-160.354047-0.705556-240.539953v-16.949835h200.972995v-69.608915h200.923503v-68.414799H837.954152c0.352778 3.380577 0.876869 6.065749 0.876869 8.754728 0.031725 84.381171 0.267756 168.767419-0.081215 253.147322-0.243645 59.242574-14.401713 115.425626-42.527502 167.407066-23.433081 43.305389-49.250585 85.317683-76.439862 132.075981z m-201.004719-1.97581c12.026173-21.074037 23.68434-39.942578 33.843836-59.587739 30.927707-59.803466 51.340604-121.892374 48.608478-190.909941-2.471983-62.341436-0.521553-124.860531-0.521553-187.29841v-14.866162H436.166786c0 81.482809-0.007614 161.595114 0.035532 241.711227 0.001269 2.310822 0.590078 4.617837 0.841337 6.928659 8.096126 74.655669 42.102391 138.863782 81.734068 204.022366z m-200.846095 69.031526c12.762184-22.632351 24.820082-42.392989 35.320934-62.94928 29.534362-57.813697 49.196019-117.768172 46.803981-184.312488-2.293056-63.747472-0.498711-127.643415-0.498711-191.477178v-14.570488H234.547878c0 66.861562 1.874291 132.587382-0.447951 198.167268-3.341238 94.431534 33.985962 174.523536 83.831701 255.142166zM637.001461 243.714954v16.361026c0 61.052147 1.691557 122.165206-0.451758 183.141215-2.348892 66.765119 15.349645 127.838839 45.118769 186.275607 11.286354 22.150137 24.089146 43.527462 37.806876 68.149582 11.976682-20.990284 22.528294-38.460404 32.098981-56.445731 33.040568-62.092715 53.88365-126.907404 51.071579-198.782726-2.38823-60.956973-0.494904-122.08526-0.494905-183.136138v-15.561566l-165.149542-0.001269zM790.709833 768.810882c-0.26268-14.783678 10.206448-25.723599 24.755363-25.863188 14.916921-0.143395 25.603046 10.14173 25.771821 24.807392 0.170044 14.613634-10.396796 25.882222-24.718563 26.358092-13.863663 0.464449-25.553555-10.995757-25.808621-25.302296z m46.213903 1.361621c1.083713-11.571876-7.539041-22.05877-18.989095-23.099338-11.703851-1.065948-21.723758 7.442598-22.707221 19.274616-1.015188 12.193679 6.994646 21.881112 18.887576 22.848079 12.078201 0.982195 21.688226-7.035254 22.80874-19.023357z" fill="#e6e6e6" p-id="3780"></path><path d="M586.497119 571.038268c-47.546338-82.051315-95.095214-164.103898-144.141492-248.746481h148.080422v248.379744c-1.315938 0.126899-2.626799 0.247452-3.93893 0.366737zM520.772568 748.401792c-66.560812-95.505096-85.995321-197.893167-72.788991-309.341793 2.60142 3.936392 4.913511 7.080937 6.86521 10.432328 36.210493 62.258952 72.269977 124.604196 108.694928 186.733711 4.428758 7.559345 5.195225 13.937265 1.234722 21.88365-14.607289 29.288179-28.724749 58.825078-44.005869 90.292104zM240.551447 389.988341h148.312647v249.344173l-3.355197 0.781695c-47.726534-82.349526-95.453067-164.705397-144.95745-250.125868zM246.547403 506.169013c40.169727 69.174922 79.20625 136.311853 118.032121 203.564262 1.62557 2.822223 2.799381 7.494627 1.592576 10.112543-14.682159 31.895943-29.847801 63.567276-46.185985 98.029108-66.881865-96.384503-86.377285-199.050482-73.438712-311.705913zM642.841331 252.416386h148.626086v249.104334l-3.608994 0.958084c-47.932109-82.652814-95.864219-165.30182-145.017092-250.062418zM721.784901 679.611373c-66.754967-96.543126-86.166634-199.659595-73.577031-312.091684 10.556688 18.179482 20.449697 35.22576 30.347781 52.268232 28.483642 49.058968 56.811199 98.211841 85.628584 147.076654 4.46429 7.574573 5.747234 13.952492 1.756275 22.008011-14.603482 29.442995-28.800888 59.092834-44.155609 90.738787zM824.842997 785.503113l-8.601182-13.259626c-2.562081 4.140699-4.775191 7.719237-6.987032 11.299044-0.969505-0.26268-1.935202-0.520284-2.904708-0.781695v-26.496411c20.354523-5.67744 24.680493 0.055835 18.492922 29.238688z" fill="#e6e6e6" p-id="3781"></path></svg>