<?xml version="1.0" standalone="no"?><!DOCTYPE svg PUBLIC "-//W3C//DTD SVG 1.1//EN" "http://www.w3.org/Graphics/SVG/1.1/DTD/svg11.dtd"><svg t="1488293175971" class="icon" style="" viewBox="0 0 1024 1024" version="1.1" xmlns="http://www.w3.org/2000/svg" p-id="2034" xmlns:xlink="http://www.w3.org/1999/xlink" width="32" height="32"><defs><style type="text/css"></style></defs><path d="M351.913 291.528l386.007 386.007-51.436 51.436-386.007-386.007 51.436-51.436z" p-id="2035" fill="#8a8a8a"></path><path d="M686.516 291.528l51.436 51.436-386.007 386.007-51.436-51.436 386.007-386.007z" p-id="2036" fill="#8a8a8a"></path><path d="M512 1001.689c-270.921 0-491.302-220.382-491.302-491.387s220.382-491.302 491.302-491.302 491.302 220.382 491.302 491.387-220.382 491.302-491.302 491.302zM512 91.741c-230.821 0-418.56 187.739-418.56 418.56s187.739 418.56 418.56 418.56 418.56-187.739 418.56-418.56-187.739-418.56-418.56-418.56z" p-id="2037" fill="#8a8a8a"></path></svg>