<?xml version="1.0" standalone="no"?><!DOCTYPE svg PUBLIC "-//W3C//DTD SVG 1.1//EN" "http://www.w3.org/Graphics/SVG/1.1/DTD/svg11.dtd"><svg t="1488981825865" class="icon" style="" viewBox="0 0 1024 1024" version="1.1" xmlns="http://www.w3.org/2000/svg" p-id="1369" xmlns:xlink="http://www.w3.org/1999/xlink" width="64" height="64"><defs><style type="text/css"></style></defs><path d="M685.35808 578.51648c-11.49056-7.28064-5.94304-18.35648-6.16704-28.09472-0.19712-8.50816-0.03968-17.024-0.03968-25.536-1.05088-0.1792-2.10304-0.35456-3.15264-0.53376-0.88064 1.26208-2.34624 2.43584-2.55232 3.8016-5.24544 34.65088-26.64832 58.08-53.99424 77.08672-23.7568 16.50816-27.35872 31.15904-12.62336 55.56224 7.85024 13.0048 4.73856 25.02144-7.92064 33.04064-20.26624 12.83584-37.1584 29.12512-49.88416 49.67168-2.63936 4.2624-6.90432 7.49312-10.22848 11.36256-2.07616 2.4192-4.65536 4.8832-5.52832 7.77344-4.44288 14.76352-21.088 27.54688-36.35328 27.37664-10.47424-0.11648-15.6864-6.97344-10.8736-16.8832 10.43456-21.48352 24.87168-39.16032 45.13024-53.43104 15.46496-10.89152 27.09632-27.49696 39.31264-42.4768 2.0928-2.56384 0.00128-10.68288-2.61504-14.59328-15.0912-22.57152-27.45984-46.20544-29.38624-73.76-0.77184-11.04256 0.9472-22.25664 0.07808-34.04032-0.97024 3.09888-2.5536 6.14656-2.81216 9.30176-2.01088 24.5824 0.38912 48.68864 12.57984 70.48192 4.88832 8.73984 0.72448 14.82624-3.7184 19.4816-2.88512 3.02336-10.72384 3.55072-15.46624 2.176-20.00128-5.7984-39.2768-14.83008-59.57632-18.65984-20.16512-3.80544-40.41088-10.03648-61.75104-6.3296-19.17696 3.33056-30.20288-10.83392-41.08032-22.96704-6.2016-6.91712 0.4608-10.12608 6.45888-9.98784 15.37152 0.352 30.94144 0.33024 46.02752 2.86592 23.30624 3.92064 46.23872 10.03904 69.4144 14.80192 6.75584 1.39008 13.80864 1.79456 20.72064 1.75744 3.17824-0.01792 8.29696-1.504 9.02016-3.5584 0.89344-2.54464-1.09696-6.9888-3.1616-9.55136-20.55552-25.52064-31.93856-55.1104-38.91584-86.65856-1.26208-5.71392-1.536-11.65184-2.17216-17.49504-0.16-1.44768-0.5632-3.64544 0.18688-4.29824 13.85984-12.05248-0.85376-14.81472-6.74816-19.168-24.02176-17.73952-47.23072-36.22784-63.99104-61.43616-2.9376-4.41984-4.91008-9.47968-8.02432-15.61984-15.94368 3.13216-27.64544-7.65312-40.69888-16.87808-13.3696-9.44896-28.22656-16.9088-42.86336-24.39936-5.94688-3.04384-12.19072-0.42752-10.58816 7.15392 3.904 18.48448 8.00896 37.08672 14.28864 54.84288 3.49824 9.89568 9.95968 18.81728 18.68416 26.45632 10.4 9.10848 11.22688 22.69184 6.82624 35.79008-3.74016 11.13856-10.2528 12.84608-18.89408 5.22752-3.0016-2.64576-6.144-5.58208-7.96416-9.04832-11.20512-21.33376-27.18848-40.04224-30.09536-65.77536-2.5728-22.78272-9.03936-45.12512-14.6816-67.60576 1.78944 11.71072 2.48192 23.73888 5.73312 35.03104 2.38976 8.29824 0.19584 13.26592-5.63328 18.12352-5.55136 4.62464-11.00288 9.37088-17.93024 12.98432-0.93184-24.09728-4.50816-46.85952 3.90784-69.57568 10.27456-27.72992 18.4128-56.25088 27.5008-84.4224 7.68768-23.8272 30.3232-29.792 49.4976-13.9776 12.07296 9.95712 25.58336 18.15552 38.272 27.38176 6.76736 4.91904 12.66304 3.84768 19.08352-0.77568 10.10176-7.27296 20.5568-14.0544 30.86976-21.02912 1.5168-1.02656 3.50848-1.6448 4.56576-3.00672 16.67072-21.4528 33.69088-42.65856 49.5552-64.69504 5.66912-7.87328 8.86656-17.65504 12.4608-26.85312 2.91328-7.45088-0.20096-11.68128-8.36864-12.93952-9.71392-1.4976-19.22432-4.65536-28.96512-5.54112-7.424-0.67456-15.11168 0.77184-22.60608 1.81376-8.16128 1.13408-16.46976 4.36096-24.11264-4.03072l7.43808-5.69472c-0.7168-0.19584-1.0688-0.36992-1.42464-0.37888-5.72672-0.15488-13.96992 5.73056-16.34048-2.592-1.8688-6.56-0.27904-15.10528 2.36288-21.73568 5.02016-12.60032 14.64704-17.05344 29.05472-19.76064 17.73312-3.33184 33.94688-14.75456 52.4288-23.4368-10.32064-10.87488-22.7712-8.38656-37.09824-11.47008 9.47968-5.3632 16.45952-12.49792 23.58912-12.64896 12.87424-0.27264 18.16064-6.4832 21.05088-19.38944 6.0672 9.23776 17.81376 12.99968 11.74656 25.75872l2.54208 1.4528c1.32736-2.0096 4.20224-4.54144 3.72736-5.9392-2.75328-8.14208 0.72704-13.3312 6.81216-17.71008 0.85504 0.15872 1.75488 0.04864 2.19904 0.44672 8.13696 7.264 26.80832 18.16576 37.35552 21.7664 2.07872 0.7104 4.80384 0.9856 6.05056 2.45888 11.72096 13.86112 27.7696 13.04704 43.58528 13.5424 3.46752 0.11008 6.89152 1.71264 13.5616 3.48544-9.76384 5.19296-16.88064 8.97664-25.6 13.61152 13.35424 7.2704 26.54208 12.61312 37.40544 20.97536 7.87712 6.06336 12.672 16.13056 19.85536 25.77152-17.28768-7.10912-32.10624-13.20064-46.92352-19.29216 5.80352 7.92576 10.74176 15.29856 22.08 16.42112 12.04864 1.19424 23.65568 6.24768 28.92288 17.76384l-41.24416-6.14656a3396.992 3396.992 0 0 0-1.3504 3.84768l32.87552 15.67104-1.04448 4.55936-38.99008-5.50528 33.95968 50.51776c-15.1744 1.4528-18.22464-12.52608-29.0176-14.81984l30.1312 32.608c-9.22368 3.4752-18.03264-0.21888-26.79552-6.31296-6.16192-4.28544-13.07904-7.48288-20.77056-9.54368 8.46464 19.24992 36.3136 21.03424 37.93408 46.29888l-24.46208-13.38624c-1.54112 13.47072-9.97376 4.65152-14.8672 5.45664 13.216 6.72 26.27968 13.36064 39.3408 20.00384l-0.19072 2.432H598.2464l14.20672 9.24032-1.95968 2.67904-32.82816-1.72544-0.69888 2.59968c17.71264 5.0432 25.91488 33.36064 51.96672 18.58816-19.27424 21.74208-37.40928 3.02592-58.12096-0.72064 5.68704 4.1856 9.94944 6.86976 13.6576 10.17728 3.7504 3.34592 6.95296 7.30624 9.18912 12.768l-18.7776-9.10976 19.56992 24.90496-1.82016 2.13376c-8.34944-4.66816-16.41728-9.98528-25.13152-13.82912-8.98304-3.95904-18.59584-6.48448-31.08224-10.69952 2.46912 10.39744 2.9056 19.3216 6.61248 26.57792 13.09696 25.64224 29.69344 48.14592 54.12608 65.14048 31.24352 21.73184 59.3856 47.23968 74.29248 83.76448 2.96192 7.2576 7.7504 6.9632 13.22624 5.60384 21.47328-5.32864 35.23072-19.38432 41.94048-39.90016 9.66144-29.54624 6.2528-59.23584-4.50816-87.4048-17.65888-46.21952-2.74432-87.8144 44.05888-111.2192-8.67072 12.03968-17.31968 21.45792-22.848 32.44544-5.43488 10.80832-7.70688 23.20896-12.25088 37.73824l47.00288-37.86112c0.1856 6.75968-5.1456 16.05376-12.0192 24.39424-11.38176 13.81248-16.59008 29.12768-13.27104 49.73184l29.65504-35.65312c0.88192 0.22656 1.76384 0.45568 2.64192 0.6848-0.832 4.93824-0.11904 11.01056-2.7584 14.63552-17.59872 24.16256-16.40192 50.58688-11.65952 78.04544 1.97888 11.44192 3.42272 23.5648 1.83168 34.9184-4.0384 28.87808-10.97216 36.65408-44.672 58.0736 0.75776 10.62784 2.1056 20.60288 1.9968 30.56128-0.1088 9.73184-1.70368 19.44192-2.69824 29.73312-15.84256-13.25056-1.43488-37.11488-16.3072-48.5824 0.78208 11.66208 2.92224 24.44544 2.00448 37.00608-0.55168 7.5584-5.10336 15.22688-9.20448 22.03648-6.68032 11.0912-14.46528 21.52064-22.18496 32.81408-5.57568-4.85248-3.28704-12.15104-1.87008-18.83648 1.19424-5.63072 3.65568-10.99136 5.55648-16.47232 10.84032-9.95072 8.84352-22.58048 9.2032-34.71616l-4.49408-0.81152c-1.49376 11.91424-2.97728 23.82848-4.46208 35.744z m-163.26912-46.76864c1.52704 13.25568 10.0416 20.39424 24.36224 20.12416 1.3696-3.31648 2.78528-6.74304 4.1984-10.1696-8.88064 6.18112-16.14208 5.40544-22.72-2.3616-2.0608-2.432-4.02688-4.9472-6.03904-7.42656-0.50048-16.18944-23.82976-41.06112-42.39488-42.00064 7.34464 5.03552 13.30944 7.82208 17.50912 12.27648 8.85376 9.38624 16.78208 19.64928 25.08416 29.55776zM344.83968 321.888l-36.60672-38.6304-2.95936 0.60416c-0.84224 18.19392-10.12608 30.44992-25.9648 38.48576 21.76512-15.10528 43.07456-1.62944 65.53088-0.45952z m400.94592 83.8336c3.07072 29.58592-3.14496 55.01952-22.56256 76.4352-1.30688 1.43872-0.83328 4.48512-1.40928 8.20736 26.21568-14.34112 38.69312-59.40352 23.97184-84.64256z m-220.65792-79.35744c-6.85824 16.6592 12.29568 52.45312 31.39712 62.56512l-31.39712-62.56512z m-43.47904 144.58368l1.68832-2.4704c-14.80448-15.72096-29.49248-31.55456-44.56064-47.01696-1.88416-1.93408-5.78048-1.90464-8.74496-2.78528 0.90368 3.16416 0.8832 7.18464 2.88 9.33632a288.1152 288.1152 0 0 0 22.05568 21.38112c8.61312 7.5072 17.76512 14.39616 26.6816 21.5552z m22.25024-303.54432l-32.07168 57.52064c25.93792-21.28768 37.89184-42.83776 32.07168-57.52064z m-68.13184 95.32544c13.11232 0.82048 26.912 1.68448 40.60032 2.54336-8.91136-11.392-28.00128-12.12416-40.60032-2.54336z m56.42368-168.21632c0.69376-8.17408-1.43616-13.65248-10.31552-12.84096-2.36672 0.21632-6.65728 4.09088-6.33984 5.0432 2.60992 7.82208 8.5248 9.792 16.65536 7.79776zM360.45568 328.44928c1.3056 0.74112 2.61248 1.48224 3.91808 2.22592l13.69088-32.97152c-1.21088-0.5056-2.42304-1.0112-3.63392-1.51424l-13.97504 32.25984z m214.68544 364.53376c-0.84608-0.91776-1.69216-1.83936-2.5408-2.7584-8.51328 8.90624-19.27552 15.71072-23.81568 28.30592 8.78464-8.51712 17.57184-17.03168 26.35648-25.54752zM549.8112 458.40896l2.96704 0.8192c2.10304-4.61952 4.6144-9.11616 6.06848-13.93024 0.45696-1.5104-1.9328-3.8784-3.01696-5.85472-1.68448 1.49376-4.48512 2.76352-4.8448 4.52608-0.95104 4.70016-0.85376 9.6128-1.17376 14.43968z m-8.52352-352.89984l17.93024-6.2592-10.92352-7.5072c-1.7792 2.14016-3.38688 3.65952-4.45568 5.49248-0.864 1.47456-1.08032 3.32928-2.55104 8.27392zM244.59392 985.85088c18.28864 2.00448 18.28864 2.00448 16.02688 20.87552-20.19584 0-40.64128 0.13312-61.07904-0.27136-1.56288-0.02944-3.95008-3.69664-4.37888-5.96864-0.72704-3.86688-0.20096-7.96672-0.20096-12.8768 5.5936-0.59264 10.55104-1.11744 16.53504-1.75488V893.44l-13.5552-1.81248v-19.00288c4.31872-0.2176 8.25216-0.59264 12.18688-0.59264 180.96-0.01792 361.92128 0.03968 542.88256-0.1408 8.61568-0.00896 14.01472 1.76768 11.70176 11.37792-0.61184 2.54464-4.03456 4.9664-6.73152 6.28224-2.08256 1.01376-5.04832 0.21632-7.62496 0.21632-164.03968 0.08576-328.08192 0.1728-492.12416 0.25728H244.6208v40.4096l2.79168 1.73696 7.94624-11.19744h11.43424v36.61696h-11.90144c-2.53056-3.89248-4.87808-7.5008-7.22304-11.11296-1.02528 0.54656-2.04928 1.09056-3.07456 1.63456v37.73824z" fill="#e6e6e6" p-id="1370"></path><path d="M317.24032 964.75904c0 8.74368-0.9664 16.54528 0.44544 23.89376 0.61824 3.22176 5.8624 7.36768 9.40544 7.7952 5.38368 0.64896 13.17248 3.95648 15.81824-4.96896 1.50272-5.07264 0.91264-14.00704 3.46496-14.89664 6.58176-2.28992 14.38464-1.09824 21.70112-1.23392 0.68096-0.01408 1.37088 0.42752 2.0544 0.66304 5.728 19.92448-2.12736 30.69312-22.51136 30.79424-12.13568 0.06272-24.27136 0.1088-36.40832 0.04224-13.75104-0.07808-23.49312-9.56288-23.56224-23.10144-0.09344-17.65376-0.07936-35.3088 0.0896-52.96256 0.15104-15.68896 6.20928-21.50528 22.08384-21.57312 13.60512-0.06144 27.2128-0.15104 40.81792-0.04864 13.68704 0.1024 21.16352 7.48288 21.30688 20.87168 0.08832 8.45824-0.34944 16.93696 0.12928 25.37216 0.41728 7.33952-2.58304 9.6384-9.62816 9.46432-14.60096-0.3648-29.21728-0.11136-45.20704-0.11136z m-0.11776-12.22272c3.04256 0.39296 4.4736 0.74112 5.90336 0.73344 26.77632-0.13312 20.58624 2.9824 22.15296-20.88448 0.77184-11.7568-3.76832-14.20672-14.44608-13.96736-10.0672 0.22784-15.2448 2.47936-13.76384 13.7024 0.84864 6.42816 0.1536 13.05856 0.1536 20.416zM634.18112 948.99328c0-9.57184 0.03712-17.56416-0.01024-25.5552-0.04992-8.38656-6.44992-6.1632-11.18592-6.5536-5.25696-0.43392-9.68576 0.1664-9.21728 7.27936 0.2816 4.29312 0.05248 8.61952 0.05248 13.664h-25.93792c-6.13888-20.97792-0.50176-28.66944 21.00608-28.73088 11.38176-0.032 22.75968-0.1024 34.14144 0.05248 12.96384 0.17792 20.42368 7.33312 20.71296 20.36864 0.29312 13.20704-0.55808 26.46144 0.15104 39.63776 0.44416 8.25088-4.50048 17.9776 5.94816 24.4992 2.01216 1.25696 0.91392 7.5008 1.34784 12.58496-25.41952 0-49.87776 0.41728-74.30528-0.26112-7.15904-0.19584-11.61728-5.64736-11.70944-13.5552-0.11392-9.54624-0.27648-19.08992-0.61696-28.62848-0.36992-10.35008 5.07904-14.71744 14.79936-14.78144 10.97984-0.07552 21.96224-0.02048 34.82368-0.02048z m-0.5184 10.79936c-19.95392-3.71968-20.29184-3.4624-20.25728 14.91968 0.00384 2.20544 0.00512 4.40832 0.03328 6.60992 0.20608 17.35168 1.79584 18.48704 20.224 13.96608v-35.49568zM498.976 988.19968c0-19.69664 0.07552-39.17568-0.09728-58.65344-0.02048-2.3104-0.9472-6.30912-2.208-6.63936-8.9728-2.34752-5.97632-8.34816-5.07264-15.5392 10.37568 0 20.62976-0.6016 30.72256 0.40448 2.67264 0.26496 4.84608 5.48608 7.7952 9.10336 7.27296-7.41888 17.54496-9.58208 28.89216-7.54432 8.9984 1.61536 14.73536 5.7408 14.21568 16.10752-0.49536 9.90848 0.33024 19.89632-0.50176 29.75872-0.21888 2.6048-4.16384 6.65728-6.8096 7.01568-18.33472 2.49984-19.13472 1.5104-18.90432-17.35424 0.0832-6.88512 0.0128-13.7728 0.0128-22.24512-13.29408 7.52256-22.45248 15.04768-20.71168 31.1296 1.25568 11.58784 0.24448 23.42272 2.62144 34.01216 2.64064 3.43552 6.3872 6.51136 7.64032 10.39488 1.61152 4.98944-1.17248 8.26496-7.08352 8.17536-9.1904-0.1408-18.3872 0.10624-27.58272 0.07936-13.94176-0.0448-13.94176-0.08576-13.27744-14.81472 3.00032-0.9792 6.25536-2.04672 10.3488-3.39072zM691.62752 988.85888c0-19.81312 0.08704-39.6288-0.12416-59.44064-0.02304-2.14272-1.54368-4.40704-2.7648-6.36928-2.36032-3.78752-5.00352-7.3984-7.53024-11.08352l2.68032-3.46752c10.54464 0 21.13792-0.5504 31.60064 0.37504 2.76992 0.24192 5.1392 5.03808 8.19328 8.27904 8.59008-9.00224 19.97312-10.09152 32.3136-5.96224 6.99264 2.3424 10.91328 6.69568 10.7072 14.59968-0.30208 11.68384-0.07808 23.3792-0.07808 36.00128h-26.18752v-38.7008c-12.47616 8.14592-23.328 13.94304-21.39264 30.21312 1.37344 11.56992 0.26624 23.4368 0.26624 35.89888l9.72032 2.98368v14.5024c-14.75712 0-29.30688 0.26496-43.8144-0.3712-1.62048-0.07168-4.74496-5.7344-4.12544-7.9552 1.03296-3.6928 4.53248-6.69696 6.99392-9.9904 1.18016 0.16128 2.36032 0.3264 3.54176 0.48768zM443.45728 923.05792c-13.84064 8.93568-22.7648 16.19328-20.8384 31.4944 1.41312 11.2128 0.27776 22.74688 0.27776 34.74944 2.17344 0.67456 4.98688 0.68352 5.91744 2.01216 2.01216 2.87744 4.0448 6.40768 4.11776 9.71264 0.04224 1.88544-3.69792 5.44768-5.8368 5.52704-13.5296 0.51072-27.08736 0.2624-41.80864 0.2624l-0.78208-14.36032c10.7264-0.62848 11.17952-7.53536 10.84288-15.84256-0.50304-12.48384 0.36224-25.02144-0.10112-37.50784-0.2368-6.3808 4.09216-15.03232-6.93504-17.86624-1.04064-0.26624-1.39264-6.18112-0.65792-9.12384 0.36352-1.46048 3.88608-2.90688 6.04288-3.008 8.07552-0.38912 16.25344-0.85504 24.23424 0.07424 3.08864 0.3584 5.75488 4.35328 9.6832 7.56736 8.224-8.5056 19.88864-9.78304 32.50816-5.37856 6.16192 2.14912 9.76512 5.81248 9.39648 13.0304-0.448 8.8064-0.79104 17.72288 0.09472 26.46144 1.03424 10.19648-3.20128 13.17888-12.54272 12.02816-3.91424-0.48384-7.93728-0.0832-13.61536-0.0832 0.00256-13.11744 0.00256-25.28512 0.00256-39.74912zM828.39168 1006.1888h-47.32032c-0.20096-6.52032-5.3056-13.83552 5.9264-16.50816 1.1904-0.28672 1.76512-5.20832 1.79072-7.9872 0.13824-15.81312 0.2048-31.62752-0.10112-47.43424-0.10624-5.53472 3.09888-13.1008-6.88896-14.46144-0.81792-0.11264-1.73056-4.67328-1.31072-6.92352 0.2752-1.47328 2.85824-3.552 4.4416-3.58272 14.23744-0.27776 28.48256-0.16128 42.96832-0.16128 1.04576 6.20544 3.17312 11.13216-5.12 12.4608-1.71392 0.27648-3.80544 4.9536-3.87072 7.64672-0.43904 17.64224-0.49792 35.29984-0.31872 52.94464 0.0256 2.45632 1.67936 6.73408 3.20512 7.04256 11.46752 2.30144 6.10432 10.10176 6.5984 16.96384zM803.60704 871.15776c4.91008 0.93312 9.22496 0.92928 12.704 2.63296 3.8976 1.91232 7.0336 5.36704 10.50112 8.1536-3.31904 2.53056-6.51776 7.00928-9.98016 7.22176-9.69344 0.59136-19.53024-0.2496-29.22496-1.30432-2.21056-0.24064-5.91872-3.88736-5.68704-5.504 0.37376-2.63168 2.9568-6.0544 5.44384-7.0528 5.35168-2.14144 11.2384-2.95168 16.2432-4.1472z" fill="#e6e6e6" p-id="1371"></path></svg>