<?xml version="1.0" standalone="no"?><!DOCTYPE svg PUBLIC "-//W3C//DTD SVG 1.1//EN" "http://www.w3.org/Graphics/SVG/1.1/DTD/svg11.dtd"><svg t="1488980110722" class="icon" style="" viewBox="0 0 1024 1024" version="1.1" xmlns="http://www.w3.org/2000/svg" p-id="1466" xmlns:xlink="http://www.w3.org/1999/xlink" width="64" height="64"><defs><style type="text/css"></style></defs><path d="M514.06976 680.51584c-109.82784-1.29408-216.35328-11.24864-319.93856-42.3488-51.76192-15.5456-101.89184-35.11296-144.59264-69.66784-19.64288-15.89376-36.06144-34.52416-42.25024-59.72096-8.9216-36.30848 7.82976-63.83872 32.864-87.37152 34.51392-32.43904 76.83456-51.52256 120.75264-67.0656 95.34848-33.73824 194.31808-47.44448 294.89024-51.5648 126.21312-5.17248 250.944 4.54016 372.6336 40.29568 56.36352 16.56064 110.91712 37.73184 155.35232 78.37952 45.53472 41.65888 47.33184 90.94784 3.94624 134.784-34.44736 34.8096-78.19008 54.41664-123.39328 70.48064-113.9712 40.50432-232.47872 52.11264-350.26432 53.79968z m-27.24096-357.66912c-31.49056 2.53184-89.09568 5.5232-146.27968 12.17792-67.56224 7.85792-133.792 22.75968-196.88192 49.23648-30.38592 12.75264-59.488 27.78112-83.3792 51.12704-34.72256 33.93024-36.45312 73.28128-2.56128 107.48544 13.96224 14.09024 30.88256 26.08128 48.26624 35.79392 66.81216 37.3248 140.32128 53.84832 215.08736 65.21728 89.27104 13.57952 179.02592 17.08672 269.22496 11.62624 87.29216-5.28256 173.3056-17.45536 256.41984-45.49632 41.86752-14.12608 82.58176-31.3152 115.26528-62.39232 38.21312-36.3392 38.1184-77.32992-0.0448-113.64096-33.056-31.44704-74.18752-48.72832-116.54016-62.8736-107.85536-36.02944-219.54816-46.24512-358.57664-48.26112z" fill="#e6e6e6" p-id="1467"></path><path d="M528.3968 642.79936c-124.17152-0.88704-229.81632-10.27328-332.60416-41.31584-37.35808-11.28064-73.31968-25.70752-105.46432-48.41344-54.35904-38.39744-54.38464-86.1824-0.01664-124.35456 52.16896-36.62976 112.08192-53.55904 173.27488-65.8688 156.10752-31.39968 312.91776-31.79264 469.67296-5.4272 61.95712 10.4192 122.95424 25.82272 178.19648 57.39264 15.67616 8.96 30.76352 20.08192 43.47904 32.84864 26.31808 26.43072 25.89312 59.03104 0.36736 86.32448-24.62464 26.33216-56.35072 41.54112-89.2928 54.27072-78.06336 30.16064-159.77728 43.16544-242.64064 49.78432-37.3632 2.98368-74.8992 3.79392-94.97216 4.75904z m205.62432-137.9008c-15.41888-20.60928-31.24864-24.32512-52.49408-12.9664-6.95296 3.71584-13.36192 8.5696-19.64544 13.39264-14.08256 10.8032-27.46624 22.57408-42.04416 32.64128-7.79392 5.38368-18.0288 8.3776-24.50432-2.62272-5.98144-10.16448-3.33696-19.23968 6.3488-26.63424 7.18848 17.47968 18.9248 20.4864 29.48352 8.30848 6.56256-7.56608 8.3712-15.63776 2.5664-24.36096-6.4256-9.66912-16.07808-12.10368-25.86112-7.64672-9.35552 4.26624-17.53984 11.10912-26.25792 16.83328-6.69952-23.74912-18.46912-28.40448-38.97728-14.71744-7.32672 4.8896-13.61536 11.3536-20.26496 17.2288-3.98592 3.52-7.75296 7.29088-13.23264 12.48-0.96384-6.84928-0.82432-11.15904-2.2592-14.85312-2.45376-6.32704-1.82784-16.8384-13.06624-14.30784-9.20704 2.07232-10.95552 8.22784-9.31712 18.04544 3.81184 22.84544-0.09984 44.3008-20.26112 59.11168-8.14848 5.98912-17.88544 13.10336-28.12032 5.5872-10.07616-7.3984-11.07328-18.66624-7.72864-30.49216 5.4528-19.27424 20.288-29.48992 36.19584-39.07072 3.69408-2.22592 6.1568-6.49984 9.184-9.83296-5.15328-1.8368-10.87488-6.13248-15.36256-5.09568-22.816 5.27744-40.5376 17.93792-52.73728 38.60352-9.39136 15.90784-20.59904 30.73536-30.34496 46.44608-1.64608 2.65216 0.01664 7.35744 0.15104 11.11296 3.22432-0.16 7.17056 0.80256 9.5232-0.71296 4.9472-3.17952 9.06112-7.66208 10.9056-9.29792 11.47648 8.87808 20.45568 18.91328 31.67744 23.70944 13.47712 5.75488 28.67584 1.71264 39.55072-7.81824 13.91488-12.19712 25.68832-26.82624 38.47936-40.31872 12.79744-13.50528 25.4784-27.1424 38.81344-40.10112 2.15424-2.09152 7.45216-0.94848 11.29472-1.30304-0.08704 3.81952 1.07776 8.2752-0.48384 11.34848-5.50272 10.82496-11.8016 21.26336-18.05184 31.69152-8.8 14.6752-17.8368 29.21088-27.1104 44.3712 17.66784 5.04064 29.80992 2.81088 38.32448-13.888 7.33312-14.38976 17.69344-27.23584 24.85632-37.96736 8.56832 7.10912 15.52256 17.15712 24.15104 18.90688 9.86752 2.00064 21.2288-3.38048 32.3264-5.63072-0.31232 18.26816 3.60064 34.55488 23.20128 41.57184 19.28192 6.90432 32.3264-7.07584 46.84288-15.57504 9.02016 20.03584 21.72928 25.6512 40.80256 13.39392 17.80864-11.44704 32.83584-27.32544 48.55808-41.8304 2.4128-2.22848 1.9456-7.5776 2.80832-11.48032-4.2432 1.0752-9.55392 0.90368-12.54912 3.44832-10.68032 9.07264-19.9424 19.90912-31.0784 28.30464-4.61696 3.48544-12.6144 2.49344-19.072 3.53536 1.21344-5.91744 0.90624-12.76928 3.87968-17.6064 22.80448-37.12128 46.26048-73.83936 69.46176-110.71616 2.61632-4.15872 4.89728-8.5248 7.47008-13.0304-18.36416-5.17504-30.48448-1.29664-39.67488 15.13856-10.4576 18.71232-23.68256 35.87328-36.35712 54.66624z m-365.30688-31.70176c0.73984 1.34912 1.48224 2.69824 2.2208 4.04864-21.088 25.8944-39.07328 54.71104-67.88096 73.4656-7.5776 4.93184-17.216 7.30752-26.2528 9.2352-13.04832 2.78144-24.16-1.02272-30.94528-13.56416-6.1696-11.39712-4.25984-26.74176 5.35936-36.36864 4.91392-4.91904 11.28448-8.35456 16.46848-13.04576 2.44608-2.21568 3.64416-5.80992 5.40928-8.77824-3.6544-1.40544-7.37152-4.15872-10.95552-3.9936-23.54176 1.08544-46.23744 27.49696-47.57888 54.6816-1.42336 28.74496 15.08224 50.39872 41.6064 54.59712 30.27328 4.7936 56.86784-4.4736 76.16384-26.94656 22.16192-25.80736 41.44256-54.18112 60.91392-82.17856 12.64128-18.17472 47.0592-25.91104 65.85856-13.57952 3.80416 2.496 8.84352 3.10528 13.31584 4.58496l1.34656-3.40224-7.70176-9.47328c5.07904-4.61952 12.25728-8.18688 14.08256-13.568 2.2016-6.48576-0.13696-14.51392-0.51328-21.87392-7.72352 0.68224-16.3008-0.4288-22.8608 2.69568-4.13824 1.9712-4.99328 10.4192-7.83616 15.68512-1.75872 3.26528-4.20736 8.26624-6.82112 8.58368-8.84736 1.07648-17.90592 0.41216-29.4592 0.41216 5.43616-7.7696 8.38528-13.85088 12.98048-18.19392a872.50816 872.50816 0 0 1 41.93664-37.18784c3.2128-2.66624 9.04704-4.54016 12.94208-3.63008 21.86752 5.1008 43.5072 11.19104 65.2352 16.89344 30.27584 7.94368 60.49664 8.32768 89.56288-4.02688 8.98688-3.81952 16.45312-11.69664 23.77856-18.60608 1.77664-1.67936 1.08416-7.23328-0.17536-10.30272-0.55552-1.34144-5.56928-1.7344-8.26752-1.16864-43.17184 9.02016-86.53312 9.10208-129.96224 2.65984-49.05472-7.27424-97.75232-19.62368-147.74912-15.10784-20.10496 1.81632-40.38912 7.36-59.33952 14.52288-16.95744 6.40896-29.45152 20.0384-35.13984 38.10816-4.80384 15.264-3.30624 30.1376 8.28928 41.86752 11.60832 11.74016 26.25152 11.44448 40.62592 5.88416 21.08032-8.15232 33.41952-24.98816 41.7536-45.07264 1.1264-2.71872-0.40064-6.53824-1.06368-13.90976-6.24128 7.23584-9.23776 12.02432-13.42336 15.27552-7.60192 5.90336-15.3216 12.58496-24.13312 15.66592-5.89312 2.05824-17.59232 0.71808-19.8656-3.13344-3.60576-6.10176-4.91904-18.35648-1.10464-23.06176 8.44544-10.41024 19.4112-21.24544 31.61344-25.6832 37.34784-13.58208 74.98624-6.22848 110.2272 2.03392-20.25216 20.88192-40.02688 41.78304-60.48512 61.98528-4.84736 4.79104-11.68768 8.04992-18.16832 10.58944-10.78784 4.224-22.2592 6.72512-32.92032 11.20256-3.13856 1.31584-4.50944 6.84544-6.69184 10.44608 3.9104-0.35968 7.98976-0.12928 11.69152-1.20064 8.07424-2.33728 15.95392-5.3376 23.91296-8.06656z" fill="#e6e6e6" p-id="1468"></path><path d="M716.44288 516.40448c-0.18688 25.54624-13.46176 43.10912-34.43584 55.20896-11.79648 6.80448-21.99296 0.24064-21.67424-12.85888 0.45568-18.64704 20.08448-46.17472 37.36064-52.39808 10.96576-3.9488 19.08992 0.42112 18.74944 10.048z" fill="#e6e6e6" p-id="1469"></path></svg>