<?xml version="1.0" standalone="no"?><!DOCTYPE svg PUBLIC "-//W3C//DTD SVG 1.1//EN" "http://www.w3.org/Graphics/SVG/1.1/DTD/svg11.dtd"><svg t="1488981563765" class="icon" style="" viewBox="0 0 1024 1024" version="1.1" xmlns="http://www.w3.org/2000/svg" p-id="11854" xmlns:xlink="http://www.w3.org/1999/xlink" width="64" height="64"><defs><style type="text/css"></style></defs><path d="M976.3456 1007.8336c-40.75136-33.45024-81.48224-66.91712-122.25024-100.33792-76.49024-62.70976-153.0368-125.35296-229.4848-188.11392-32.96-27.0656-65.95712-54.0992-98.464-81.69984-10.32064-8.76672-16.86656-11.20896-29.39392-0.7168-93.37088 78.176-187.71328 155.2-281.79712 232.52608-55.9616 45.9968-112.00896 91.88992-170.08 136.10112 154.91328-204.36736 309.824-408.73472 466.08768-614.88896C667.37024 596.67328 822.68416 801.1904 977.99808 1005.71264c-0.55296 0.70656-1.10592 1.4144-1.65248 2.12096z" fill="#e6e6e6" p-id="11855"></path><path d="M510.976 16.1664c157.17376 206.93248 312.8448 411.88992 468.51968 616.84352-0.39296 0.4544-0.79104 0.9088-1.184 1.36192-19.64416-15.92576-39.36128-31.77216-58.9248-47.80672a270141.1584 270141.1584 0 0 1-219.12704-179.83872c-60.10368-49.38624-120.29824-98.6688-180.03328-148.5056-7.61984-6.35776-12.17664-5.29792-18.87744 0.2368-111.49056 92.09216-223.07584 184.06528-334.69696 275.99744-39.9872 32.93696-80.1216 65.69728-122.144 96.90752L510.976 16.1664z" fill="#e6e6e6" p-id="11856"></path></svg>