<?xml version="1.0" standalone="no"?><!DOCTYPE svg PUBLIC "-//W3C//DTD SVG 1.1//EN" "http://www.w3.org/Graphics/SVG/1.1/DTD/svg11.dtd"><svg t="1488979876688" class="icon" style="" viewBox="0 0 1025 1024" version="1.1" xmlns="http://www.w3.org/2000/svg" p-id="1292" xmlns:xlink="http://www.w3.org/1999/xlink" width="64.0625" height="64"><defs><style type="text/css"></style></defs><path d="M289.784966 191.461025c74.35483-50.619205 148.264195-50.675529 222.359939-0.328723 73.75166-50.338613 147.675361-50.229039 222.511499 0.333843 42.053981-31.677198 89.9666-44.089809 142.840782-34.608053 44.299741 7.943621 80.637428 30.090931 108.337183 65.506966 55.424087 70.862791 50.475837 169.268656-12.073648 234.897485-60.510585 63.489571-163.088464 75.388105-239.158592 16.946118-74.150019 50.566978-148.084985 50.83733-222.486922 0.389142-73.666663 50.377528-147.781864 50.432827-222.28723-0.302097-79.658429 61.648314-187.413947 43.788736-245.184151-23.381301-59.196718-68.829011-59.134251-168.193395-0.469019-235.749502C103.637779 146.688169 211.285771 130.580755 289.784966 191.461025zM763.852308 443.858644c52.828099 39.414983 131.968354 36.76472 182.502563-17.72133 48.862945-52.685755 48.299713-135.637555-0.814126-187.476414-51.741573-54.614057-131.337534-54.98579-181.633137-16.73721 24.854921 32.685895 38.045817 69.347185 38.087803 110.681253C802.035348 374.14587 788.714397 410.974082 763.852308 443.858644zM260.368889 221.909353c-50.972505-38.578327-130.534672-37.549148-181.64645 16.833472-49.422081 52.584373-49.507078 135.803453-0.41372 187.893206 51.540858 54.685741 130.756893 55.882865 182.087819 17.16117-24.77914-32.706376-38.047865-69.365618-38.121597-110.69559C222.200185 291.579116 235.397226 254.737592 260.368889 221.909353zM320.200523 222.06501c25.057684 32.627524 38.123645 69.458807 38.128765 110.712999 0.004096 41.395512-13.270772 78.331249-38.263941 111.08678 50.374455 38.02636 120.471251 32.963415 162.109464-0.285712-25.116056-32.558912-38.147198-69.563261-38.203522-110.660772-0.056323-41.236782 13.049576-78.355826 38.300807-110.936243C434.671816 185.394503 363.982091 187.284915 320.200523 222.06501zM541.965484 443.719372c46.516827 35.880957 116.372969 35.495911 161.565689 0.49974-50.573123-74.345614-50.796367-148.425996 0.001024-222.751129-46.922355-36.099082-117.526059-34.160539-161.478644 0.634916 25.203101 32.481083 38.239364 69.469048 38.242436 110.561438C580.298037 373.771065 567.328338 410.792823 541.965484 443.719372zM512.003584 413.775905c37.15079-46.85067 34.579379-119.72676-0.021505-161.497077C477.666907 295.71836 475.280851 365.659499 512.003584 413.775905zM733.770593 251.970586c-36.565028 48.110262-34.282402 117.542444 0.157705 161.751044C770.59778 367.953389 768.881458 294.712735 733.770593 251.970586zM290.358438 414.009391c37.792874-50.263857 33.29009-119.841455-0.110598-162.016275C255.510756 295.878113 253.659259 366.615969 290.358438 414.009391z" p-id="1293" fill="#e6e6e6"></path><path d="M103.517965 869.01491c20.476047-30.733016 40.215796-60.369265 59.965786-90.000394 19.677282-29.520531 39.366852-59.034917 59.324726-88.965071-6.578551-7.891394-13.178607-15.809413-20.362377-24.427888 2.643095-0.210956 4.220145-0.444441 5.799243-0.445465 21.755096-0.023553 43.513264-0.137224 65.264264 0.145416 2.559122 0.031746 6.127965 1.579098 7.480746 3.593421 43.980235 65.589915 87.746442 131.323197 131.536202 197.041119 0.434201 0.650277 0.759851 1.376334 1.492053 2.715803-2.197629 0.1362-3.911903 0.326675-5.628225 0.327699-19.703907 0.023553-39.408838-0.120839-59.108649 0.124935-4.405499 0.054275-7.064979-1.096767-9.292306-5.058848-4.819219-8.574441-10.061373-16.924613-15.463281-25.147801-1.066045-1.625181-3.617998-3.212471-5.492025-3.21964-41.047332-0.189451-82.096712-0.186379-123.146091-0.022529-1.655902 0.007168-3.909855 1.575002-4.855061 3.066031-5.599551 8.829431-10.759781 17.935358-16.405415 26.73202-1.077309 1.677408-3.651792 3.367104-5.553469 3.390657C147.738853 869.102979 126.397477 869.01491 103.517965 869.01491zM216.625212 795.750702c27.189774 0 54.292503 0 81.535528 0-13.759248-22.542597-27.380249-44.856829-40.981792-67.139315-6.622585 11.119226-13.151982 22.206706-19.803241 33.216357C230.616921 773.016606 223.737297 784.13276 216.625212 795.750702z" p-id="1294" fill="#e6e6e6"></path><path d="M742.749537 719.287335c-15.653756-17.448931-31.505156-35.118034-48.143032-53.660659 2.840738-0.210956 4.526338-0.441369 6.211938-0.443417 19.420243-0.025601 38.838438-0.09831 58.259705 0.086021 2.313348 0.021505 5.510458 0.771116 6.783363 2.380936 19.370064 24.472947 38.896809 48.840416 57.498829 73.891956 10.469973 14.095139 17.751028 29.952683 17.532903 48.232125-0.326675 27.609638-12.590798 48.352964-36.42678 61.986253-18.590756 10.634846-39.169209 14.874448-60.261739 16.496556-29.694621 2.282626-58.896669-0.189451-86.288182-12.84374-23.395638-10.807912-39.149752-28.59171-42.897805-54.680621-4.280564-29.809315 7.954885-52.627384 33.556345-67.440388C677.877487 716.338047 709.426677 711.20137 742.749537 719.287335zM727.962134 752.097142c-18.63479-0.024577-32.645957 4.685067-43.783616 14.7362-15.67731 14.145318-15.724416 35.180501-0.106502 49.400576 20.877478 19.008571 65.208965 19.565659 86.445887 1.081406 17.148881-14.924627 16.834496-37.126212-0.657445-51.936144C757.718198 755.100705 743.32813 752.102262 727.962134 752.097142z" p-id="1295" fill="#e6e6e6"></path><path d="M408.912652 716.728214c20.471951 0 40.188147 0 60.841356 0 0 2.328709 0 4.501761 0 6.672764-0.002048 22.468865-0.074756 44.937729 0.051203 67.40557 0.02765 5.131556 0.337939 10.330701 1.22375 15.377261 1.982577 11.275907 8.187347 19.099713 19.585116 22.276342 10.427986 2.907302 20.81501 2.849954 30.974694-0.857137 12.527306-4.570373 18.383896-14.015263 18.457628-27.120138 0.143368-25.557425 0.159753-51.117922 0.228365-76.673298 0.007168-2.209918 0.001024-4.416764 0.001024-6.977934 20.376713 0 40.049899 0 59.96169 0 0.172042 0.94623 0.432153 1.717346 0.432153 2.489486 0.023553 28.857965 0.305169 57.72105-0.055299 86.574919-0.319506 25.807295-16.110486 47.078011-43.245985 55.584864-35.900414 11.250305-72.379422 11.250305-108.028942-1.326156-27.319829-9.640486-40.384766-29.752992-40.419584-58.653967C408.887051 773.488697 408.912652 745.476604 408.912652 716.728214z" p-id="1296" fill="#e6e6e6"></path><path d="M919.75905 717.784018c0 50.704202 0 101.181063 0 151.974359-20.968619 0-41.635141 0-62.681589 0 0-50.720587 0-101.15751 0-151.974359C878.06349 717.784018 898.726939 717.784018 919.75905 717.784018z" p-id="1297" fill="#e6e6e6"></path></svg>