<?xml version="1.0" standalone="no"?><!DOCTYPE svg PUBLIC "-//W3C//DTD SVG 1.1//EN" "http://www.w3.org/Graphics/SVG/1.1/DTD/svg11.dtd"><svg t="1488980600310" class="icon" style="" viewBox="0 0 1027 1024" version="1.1" xmlns="http://www.w3.org/2000/svg" p-id="6099" xmlns:xlink="http://www.w3.org/1999/xlink" width="64.1875" height="64"><defs><style type="text/css"></style></defs><path d="M585.245788 469.763669l332.896909 260.020184c35.849063-66.912298 54.621191-141.763559 54.621191-217.688825 0-80.874363-21.236472-160.462981-61.70044-230.473567-40.426977-69.973595-98.60565-128.239004-168.755269-168.6494-65.89059-37.998348-139.982905-59.111093-215.909447-61.487424l58.847056 418.279032zM120.376368 754.802302c40.004773 64.4977 95.452514 118.203053 161.200243 156.200126 70.045025 40.465243 149.457619 61.821616 230.381728 61.821616a460.160125 460.160125 0 0 0 230.34984-61.821616c65.99646-37.997073 121.356188-91.702425 161.395401-156.200126L511.959615 596.577895 120.376368 754.802302z m377.21556-703.31639c-75.890827 2.376332-150.055847 23.489076-216.015317 61.487425-69.991452 40.410395-128.16885 98.675805-168.631542 168.6494C72.482377 351.632046 51.211466 431.220665 51.211466 512.095028c0 75.925266 18.876722 150.776528 54.656905 217.688825L438.817578 469.763669l58.77435-418.277757zM256.010955 955.393784C178.166001 910.476905 113.508858 845.819763 68.644276 767.973533c-44.936012-77.879394-68.636828-166.060053-68.636828-255.878505 0-90.01361 23.700816-178.194268 68.636828-256.09152C113.508858 178.209575 178.166001 113.678711 256.010955 68.689126 333.767898 23.770971 422.088865 0 511.959615 0c89.943455 0 178.159829 23.770971 256.058356 68.690401 77.895976 44.989585 142.448524 109.520449 187.381986 187.314382 45.041882 77.897252 68.567949 166.07791 68.567949 256.09152 0 89.817177-23.526067 177.999111-68.567949 255.878505-44.934737 77.84623-109.48601 142.504648-187.381986 187.421528-77.898527 44.952594-166.114901 68.599838-256.058356 68.599837-89.870749-0.002551-178.191717-23.649794-255.94866-68.602389" fill="#e6e6e6" p-id="6100"></path></svg>