<?xml version="1.0" standalone="no"?><!DOCTYPE svg PUBLIC "-//W3C//DTD SVG 1.1//EN" "http://www.w3.org/Graphics/SVG/1.1/DTD/svg11.dtd"><svg t="1488980642821" class="icon" style="" viewBox="0 0 1024 1024" version="1.1" xmlns="http://www.w3.org/2000/svg" p-id="6794" xmlns:xlink="http://www.w3.org/1999/xlink" width="64" height="64"><defs><style type="text/css"></style></defs><path d="M493.92128 844.63488c-126.06464 2.55232-241.68832-33.93664-346.69952-100.56192C70.14144 695.16544 15.64416 626.46272 5.64736 531.44832c-7.65952-72.71424 22.48448-132.79616 69.01376-186.01344 59.97056-68.58496 136.29056-110.49728 223.79008-131.24608 60.192-14.27328 121.13152-27.85408 182.50624-33.888 42.944-4.22016 87.168 5.33376 130.87232 7.8592 74.528 4.29696 143.57504 29.00992 209.24032 61.27104 86.16448 42.3424 157.21216 102.9632 187.34208 197.96352 15.60064 49.20448 15.90656 99.33696-6.18496 150.37568-49.42592 114.19136-145.98272 167.21664-253.98272 208.64512-82.17344 31.51488-167.79776 37.26464-254.3232 38.21952z m75.08864-47.64288c7.39456 1.90976 10.96448 4.04096 13.9968 3.43936 97.79456-19.38688 187.75808-49.9392 269.26592-115.12576 82.18624-65.73952 109.94944-189.8944 74.41664-273.68576-18.29248-43.1168-25.49504-43.94112-53.83424-6.69056-3.53536 4.65664-8.4544 8.22656-12.32896 12.65408-48.04352 54.78912-114.5664 72.92288-181.45536 85.79712-35.63136 6.85696-43.43552 25.81376-43.69152 55.16288-0.60288 68.57728-11.97568 134.7264-43.2896 196.46848-6.98112 13.7664-14.8608 27.08608-23.07968 41.98016z m-122.67392 2.5408c1.51552-3.2256 3.38304-5.32096 3.22432-7.23712-0.38784-4.56576-0.55296-9.78944-2.87104-13.44256-45.53856-71.69792-58.70464-151.68384-60.38528-234.58432-0.5184-25.74976-13.46432-35.0976-38.60608-39.99616-77.92384-15.18592-150.66624-41.43616-201.95456-108.2688-4.91264-6.4064-25.696-8.3648-32.96768-3.39712-10.48832 7.168-18.57664 21.6896-22.09792 34.59968-23.8208 87.47264-7.80416 166.9184 54.28352 234.25792 81.05728 87.936 187.45856 121.55904 301.37472 138.06848z m173.21344-564.97536c-14.01728 0-18.99904-1.00352-23.36384 0.20096-10.5792 2.92736-20.88064 6.88384-31.29344 10.42688 4.3584 9.08416 8.4416 18.31424 13.1328 27.2256 8.3776 15.94112 19.00544 30.9824 25.22496 47.69024 8.08064 21.6832 10.39104 45.69728 19.808 66.63424 5.61152 12.48768 22.99136 31.52128 30.08256 29.55648 40.41856-11.19488 80.43648-25.46688 118.4192-43.31008 34.36544-16.1344 37.75488-55.82592 8.21248-80.86528-48.60288-41.20448-109.68832-47.95648-160.22272-57.55904z m-151.6352 2.32448c-70.75712-11.00032-136.3456 9.06368-198.99264 38.03136-16.16896 7.47904-30.9952 27.63264-36.92544 45.17888-8.544 25.2736 6.60736 45.60768 30.36672 57.23776 22.6304 11.06944 45.09568 23.07328 68.82688 31.20256 55.59168 19.05408 57.55648 17.01376 71.01312-40.95104 2.58688-11.13216 7.27936-22.04288 12.59904-32.22016 17.03168-32.54528 34.81344-64.69504 53.11232-98.47936z m30.12352 286.47936c-34.98112-7.5136-57.8944 0.7808-53.51552 28.88448 6.52416 41.85728 15.93344 85.27232 34.80064 122.62656 18.71488 37.04832 48.90112 35.65184 67.89888-2.44224 17.85728-35.80416 27.17056-76.5824 35.05792-116.21248 2.53824-12.7296-0.0896-37.62432-27.00416-36.1152-22.02752 1.22496-44.04992 2.50496-57.23776 3.25888z m-35.91424-90.55872c24.91392 0 48.32 0.27008 71.71072-0.06144 30.49728-0.43648 43.7184-14.67392 35.71328-43.67104-5.75616-20.85888-15.32416-41.8432-27.93728-59.36128-17.65632-24.4992-39.49824-21.62688-59.21664 3.48672-22.3936 28.53248-37.31712 58.55232-20.27008 99.60704z" fill="#e6e6e6" p-id="6795"></path></svg>