<?xml version="1.0" standalone="no"?><!DOCTYPE svg PUBLIC "-//W3C//DTD SVG 1.1//EN" "http://www.w3.org/Graphics/SVG/1.1/DTD/svg11.dtd"><svg t="1488981748446" class="icon" style="" viewBox="0 0 1024 1024" version="1.1" xmlns="http://www.w3.org/2000/svg" p-id="12153" xmlns:xlink="http://www.w3.org/1999/xlink" width="64" height="64"><defs><style type="text/css"></style></defs><path d="M505.35552 927.45984c-71.33312-10.60224-144.04608-15.60192-213.70368-32.91904C131.91168 854.848 32.69888 754.8864 9.98144 587.63776c-10.3872-76.4288-7.96416-152.66176 15.26272-226.70976 37.3632-119.12064 121.05088-193.11616 237.94816-227.42784 166.78656-48.96128 335.64032-50.37696 501.68704 2.35008 162.2336 51.51232 246.71488 168.06656 254.26944 337.7856 9.9776 224.13184-81.696 365.37728-274.65728 418.35904-46.65344 12.80896-95.33824 19.30624-143.52128 25.03296-31.12064 3.68896-63.03616 0.69504-94.59712 0.69504l-1.0176 9.73696zM129.00224 443.3984c4.7616 60.30976 3.98208 117.12256 14.64576 171.70944 21.6064 110.62528 89.95968 182.32704 199.744 210.46272 114.19776 29.27744 229.40672 29.53984 343.16416-1.69728 156.7232-43.0272 256.1984-245.25568 193.94816-393.65376-55.37408 19.88992-110.3552 41.37984-166.46272 59.39072-82.31296 26.42944-141.10464 78.89024-181.01504 154.38976-6.25152 11.80672-13.72032 22.96448-21.77664 36.3456C428.544 539.36256 314.97984 467.96032 129.00224 443.3984z m716.44672-134.6432C737.68576 170.58688 591.8592 170.23872 446.20032 178.2528c-107.18336 5.89568-206.44992 35.72352-271.4624 140.72704 126.0736 59.96928 268.3904 89.54624 337.65504 236.69504 63.44576-154.64832 207.71584-182.63296 333.056-246.91968z" fill="#e6e6e6" p-id="12154"></path></svg>