<?xml version="1.0" standalone="no"?><!DOCTYPE svg PUBLIC "-//W3C//DTD SVG 1.1//EN" "http://www.w3.org/Graphics/SVG/1.1/DTD/svg11.dtd"><svg t="1488980254666" class="icon" style="" viewBox="0 0 1024 1024" version="1.1" xmlns="http://www.w3.org/2000/svg" p-id="1784" xmlns:xlink="http://www.w3.org/1999/xlink" width="64" height="64"><defs><style type="text/css"></style></defs><path d="M69.69088 661.23392v-37.36064h36.37504v197.57568c-1.30048 17.0624-10.49216 26.54336-27.52384 28.512H2.81088v-29.4848h59.02848c5.87904 1.3056 8.51968-1.62816 7.85152-8.84736v-116.97536H3.81824v-33.4208h65.87264v0.00128z m53.1136 161.21984V623.87328h36.3712v38.3232h66.88384v33.42976h-66.88384v116.9664c-1.29664 6.58688 0.67584 9.18912 5.91872 7.88352h59.95776v29.4848H148.352c-17.03168-0.66304-25.54752-9.8112-25.54752-27.5072z m239.1424-187.77088v-10.80832h39.35232v10.80832h92.43136v26.55104H267.54688v-26.55104h94.4z m-90.4576 139.58656v-98.26688h216.32768v68.77312c0.66432 20.97664-8.85504 30.83648-28.53248 29.49248h-61.93024v49.14816c0.63232 17.03168-7.55072 25.58592-24.58624 25.58592h-32.46592V822.4512h12.7936c5.2416 1.3056 7.55072-1.29664 6.87488-7.88224v-40.3008h-88.48128v0.00128z m35.4112-27.51616h137.65888c7.21536 1.96864 10.15296-0.9728 8.84736-8.85632v-32.41728H306.90048v41.2736z m-39.3536 74.69696h15.73504c7.21152 0.672 11.44832-2.26944 12.79744-8.85632l10.82112-28.47232h37.34016l-11.78496 42.2784c-5.91872 14.37312-16.7424 21.93408-32.47744 22.6048h-32.43008v-27.55456h-0.00128z m159.30496 5.9136l-10.82496-42.27712h38.34752l7.8912 27.5072c0.62464 8.5632 5.53088 12.1216 14.72256 10.82496h14.76992v25.58592H458.3168c-18.37568 0-28.864-7.21792-31.46496-21.64096z m210.61504-200.5248h118.02112v168.10752H724.0192v-137.6512h-54.07872v138.60736h-32.4736V626.83904z m-70.77888 34.39488h-29.49632v-32.41856h86.51264v32.41856h-24.58624v54.06592h25.59104v30.48064h-25.59104v74.69568h26.55488v30.4576h-88.48128v-30.4576h29.49632v-74.69568h-29.49632v-30.48064h29.49632v-54.06592z m116.04864 11.7888h28.48896v121.92384l-25.5552 45.2032c-3.94496 7.2192-10.15296 10.78528-18.66752 10.78528h-29.536V824.4224h15.72992c5.24288 0.63232 8.85632-1.00352 10.82496-4.94848l18.71488-32.41856v-114.03264z m26.51264 161.22112v-28.52864h29.49248v12.80128c0 3.93728 2.3168 5.90592 6.93376 5.90592h15.72736v26.51264H724.992c-11.79776 0.66432-17.04448-4.91008-15.74272-16.6912z m84.79232-164.16256h10.82496c5.24288 1.3056 9.81248-2.92608 13.75744-12.78592l13.75872-34.3936h39.32032l-21.61792 51.12448v176.9088H812.7104V699.57376h-18.6688v-29.49248z m117.97888 4.91776l-4.91008-51.12448h35.40608l6.88768 51.12448h70.77376v31.45344h-66.83648l10.83264 104.22016c-0.672 8.50688 4.5696 12.1216 15.72608 10.7776h40.27776v30.48832h-60.9536c-18.34368 0-28.20352-7.8912-29.50016-23.61728l-13.75872-121.8688h-57.01632v-31.45344h53.07136z m109.16992-8.85504h-36.38016c-16.40576 0.67072-24.92288-3.60576-25.58592-12.75392l-5.88288-29.5168h35.37536l1.96864 8.84736c-0.62464 3.26528 2.97216 4.61056 10.82496 3.93728h19.68v29.48608z" fill="#e6e6e6" p-id="1785"></path><path d="M503.65056 172.06144c107.83744 0 206.01728 21.024 277.39904 54.9248 74.75968 35.50208 121.10208 85.70624 121.10208 142.10176 0 56.39168-46.3424 106.592-121.10208 142.09408-71.38304 33.9072-169.56288 54.92352-277.39904 54.92352-107.83872 0-206.02112-21.01632-277.408-54.92352-74.75072-35.50208-121.1008-85.7024-121.1008-142.09408 0-56.39552 46.35008-106.59968 121.1008-142.10176 71.38688-33.89952 169.57056-54.9248 277.408-54.9248z m-30.47296 30.17728c-26.59072 30.87232-87.1104 110.87488-30.27072 141.66272 67.67872 36.65664 261.46432-95.74784 280.03584-108.63232-79.39584-27.24608-166.1504-36.22528-249.76512-33.0304z m312.08704 59.97312c-21.7984 47.55968-88.94336 188.97792-149.40032 262.90432 50.27968-8.99712 95.38048-22.9632 132.59008-40.63872 64.25856-30.51264 104.10112-71.41888 104.10112-115.38816 0.00128-39.9936-32.97024-77.472-87.29088-106.87744zM529.24928 536.09984c23.18208-23.73888 98.9312-107.59936 38.10432-132.94464-62.03392-25.8432-236.7744 74.5536-280.39296 100.6144 38.5856 13.01248 81.0176 21.44128 122.87232 26.4384 41.85344 5.00608 83.12704 6.58688 119.41632 5.89184zM226.8672 478.528c16.43008-38.336 92.6016-211.07328 154.69696-267.22816-54.35904 8.88704-103.0336 23.53152-142.72256 42.3808-64.26368 30.52416-104.1088 71.4304-104.1088 115.40864 0 41.16224 34.94016 79.65312 92.1344 109.43872z" fill="#e6e6e6" p-id="1786"></path></svg>