<?xml version="1.0" standalone="no"?><!DOCTYPE svg PUBLIC "-//W3C//DTD SVG 1.1//EN" "http://www.w3.org/Graphics/SVG/1.1/DTD/svg11.dtd"><svg t="1488980884789" class="icon" style="" viewBox="0 0 1032 1024" version="1.1" xmlns="http://www.w3.org/2000/svg" p-id="8841" xmlns:xlink="http://www.w3.org/1999/xlink" width="64.5" height="64"><defs><style type="text/css"></style></defs><path d="M343.61856 603.57504H0c4.3776-9.03552 8.36096-17.40288 12.46336-25.71008 26.66368-53.98528 53.41056-107.92832 79.91552-161.99168 1.94944-3.97568 4.49536-4.18688 8.05888-4.1856 78.0672 0.05632 156.1344 0.04224 234.20288 0.04224h8.51456v-83.21152h351.85024v82.91712H1032.3456c-1.05728 3.15136-1.57312 5.50656-2.59712 7.61216-29.25056 60.04864-58.59456 120.04864-87.74016 180.14848-2.01728 4.16512-4.82304 4.44032-8.6272 4.43776-76.57472-0.06272-153.14944-0.04736-229.72544-0.04736h-8.25216v91.89248H343.61856v-91.904z m25.60896-31.56736l-0.69504-1.41312h-6.95296c-96.19072 0-192.38656 0.36992-288.57216-0.352-16.68864-0.12544-26.80832 10.33984-39.60064 17.01504 1.37984 0.77056 2.57024 0.88448 3.76064 0.88448 103.44192 0.00768 206.8864 0.0128 310.3296-0.03968 1.81632 0 4.128-0.10752 5.3632-1.15968 5.62176-4.78208 10.93888-9.92256 16.36736-14.93504z m-4.2944 107.16928l1.10592 1.4528h305.47584c-4.80768-5.41312-8.72064-10.1824-13.0752-14.50752-1.42208-1.41056-4-2.33216-6.05312-2.33472-88.89728-0.1152-177.79456-0.10752-266.69056-0.04224-1.78816 0.00256-4.02176 0.32512-5.28768 1.3952-5.31456 4.49152-10.3424 9.32736-15.4752 14.03648z m-92.15744-164.88192v31.23968h22.97088v-82.1248h-23.552v28.99968h-24.4416v-28.93824h-23.17824v82.12608h23.424v-31.3024h24.77696z m271.17952 0.70016c1.96992-1.472 3.64032-2.74432 5.33248-3.98464 10.592-7.7568 12.21504-18.26688 9.20704-30.15552-2.80704-11.10528-10.8928-15.91936-21.45024-16.77696-9.94304-0.80896-19.95776-0.74368-29.9456-0.97024-5.00352-0.11264-10.01088-0.02048-14.79808-0.02048v82.32704h22.4832v-20.36992c5.58464-1.85472 9.03936-0.15744 11.85152 4.15488 3.01696 4.62208 6.45248 8.98688 9.9072 13.30304 1.11232 1.39008 2.81728 3.14496 4.33024 3.2256 6.6496 0.352 13.32736 0.15232 21.18272 0.15232l-18.10048-30.88512z m76.1152 34.95936c24.53248 0.0256 45.46304-20.50944 45.61536-44.76288 0.15488-24.37632-19.80032-43.99872-44.96512-44.2176-25.49504-0.22272-45.73696 19.26272-45.73696 44.02304-0.00128 24.81536 20.17152 44.93056 45.08672 44.95744z m47.77984 20.64c5.088 5.4848 8.68736 10.01472 12.9856 13.73952 2.29248 1.9904 5.78944 3.65312 8.75008 3.65952 76.51712 0.19456 153.03296 0.15744 229.55264 0.13696 1.77024 0 3.54048-0.26752 6.1696-0.47744-2.08512-3.70944-4.07296-6.49984-5.30048-9.58976-2.36288-5.93024-6.19776-7.66976-12.70016-7.64544-76.94208 0.27264-153.888 0.17536-230.83008 0.17536l-8.6272 0.00128z m16.0832-131.34592h8.192c93.15968 0 186.32192-0.21248 279.48032 0.26752 11.61216 0.06016 19.19488-5.6064 29.05984-12.4608h-8.61056c-96.35712 0-192.71552 0.16512-289.07264-0.25728-9.5616-0.04224-15.11936 3.072-19.04896 12.45056z m-13.80352-97.2416H372.8c5.56288 8.00768 11.23328 12.30848 21.60256 12.24192 85.2672-0.54784 170.54208-0.544 255.81184-0.00256 10.25792 0.06528 14.4256-5.4912 19.91552-12.23936z m-194.56384 121.08288c-5.69856 0-10.5536 0.24192-15.3728-0.07552-4-0.26368-6.0032 0.98432-7.40096 4.98048-4.2112 12.03328-8.94592 23.88352-13.50272 35.79648-0.69376 1.81376-1.52704 3.57376-2.8416 6.62656-5.42208-15.17952-10.176-28.82304-15.25632-42.34112-0.736-1.9584-2.92864-4.59008-4.64256-4.74368-6.29888-0.5696-12.68096-0.22656-19.98336-0.22656l22.71616 82.80704c8.73088 0 16.61696-0.16768 24.48896 0.07808 3.61472 0.11264 5.22624-1.14688 6.30656-4.6144 4.54784-14.60224 9.40416-29.10976 14.15424-43.648 3.68128-11.27296 7.3728-22.53952 11.3344-34.63936z m304.7488 65.12768v-16.84992h26.15808v-14.05696h-26.01984v-15.57376h29.42208v-18.22464h-52.03456v81.91616h51.91296v-17.2096l-29.43872-0.00128z m-400.256-46.14784v-18.5024H327.0784v82.02112h53.0432v-17.27488h-30.1312v-16.93312h23.60064v-14.30144h-23.67104v-15.00928h30.13888z m-20.93312-42.82112c-5.36064-8.03328-10.2144-12.58496-20.30208-12.50688-73.94944 0.57856-147.90656 0.31232-221.86112 0.31232h-7.5968c4.66432 12.192 4.66432 12.19328 16.34688 12.19328h225.0624l8.35072 0.00128z m-161.52448 45.08544c0-4.16384-0.32-7.75296 0.08064-11.25888 0.5184-4.56064-1.33632-6.78528-5.4912-8.48768-28.33152-11.60448-56.5312 4.05504-60.8128 34.69952-2.41024 17.24416 2.08512 32.95744 16.97024 43.552 14.52032 10.33472 29.98912 9.18272 45.18912 1.0176 1.728-0.928 3.65312-3.10784 3.87072-4.9024 0.54912-4.5696 0.18176-9.25056 0.18176-14.19776-13.93664 3.8272-27.90528 12.31744-39.6544-2.59712-7.06944-8.97664-7.20384-24.82944-0.70656-33.82912 11.4432-15.8528 25.74208-9.30304 40.37248-3.99616z m631.34464-2.22592h22.46528v63.49184h23.76704v-63.70304h23.27808v-18.28224h-69.5104v18.49344z m-139.85536-18.70208v82.14656h48.20224v-17.408h-26.68032v-64.73984l-21.52192 0.00128z m317.0624-25.48864l-0.86528-0.92416c-5.84064 3.36512-11.73504 6.63808-17.47968 10.15936-1.33504 0.8192-2.43712 2.33728-3.16544 3.77728-17.9904 35.68-35.9424 71.38048-53.77024 107.14368-0.82304 1.65248-1.14688 4.2304-0.4544 5.83296 1.98528 4.5696 4.61696 8.86016 7.45472 14.112 23.08224-47.36128 45.6832-93.73184 68.28032-140.10112z m-560.16384-21.37344v11.43936h147.98848v-11.43936H445.98912zM25.86496 576.01024l0.93056 0.88064c2.51136-1.38752 4.92032-3.02464 7.55328-4.11776 8.7872-3.64288 13.60384-10.39488 17.58592-18.89792 15.33312-32.7424 31.31264-65.184 47.09376-97.71776 4.35968-8.98688 4.096-11.01184-3.37408-19.01696L25.86496 576.01024z m420.22272 12.37248v10.40768H593.7408v-10.40768H446.08768z m-75.20384-3.45984c-3.8336 4.04224-6.08768 6.88512-8.80256 9.18528-4.80384 4.0704-6.03904 8.9856-5.89312 15.17952 0.40448 17.24544 0.13952 34.50496 0.13952 51.75808v11.14752c8.79616-7.64544 17.16736-13.5744 14.67648-25.94944-0.78208-3.88992-0.1216-8.0704-0.1216-12.11776l0.00128-49.2032z m296.78848 0.57984c-0.14208 2.9248-0.32768 4.94464-0.33024 6.96704-0.02304 17.88544 0.97792 35.84512-0.352 53.632-0.92544 12.39296 6.13248 18.19008 14.56768 25.26464 0.1344-2.96704 0.30976-5.03552 0.31232-7.10272 0.02304-17.248-1.05984-34.5856 0.36736-51.71456 1.0624-12.75136-6.13248-19.18464-14.56512-27.0464zM370.88384 429.84064v-6.51648c0-16.18944-0.864-32.44032 0.28032-48.54912 0.87168-12.28416-7.45472-17.64736-14.8224-26.56512 0 23.25248-0.02816 44.4992 0.07168 65.74464 0.00512 1.32096 0.69888 2.9696 1.63456 3.90016 3.90656 3.8784 8.03072 7.54048 12.83584 11.98592z m310.99904-79.39712l-1.49248-0.26752c-2.25792 2.50496-4.35712 5.18144-6.81216 7.47776-4.98048 4.66048-6.79296 10.09152-6.39744 17.00224 0.57984 10.18496 0.14976 20.4288 0.14976 30.64704v25.91104c8.45952-8.10752 16.60032-14.09408 14.81472-26.74304-1.3248-9.39264-0.2624-19.12192-0.2624-28.70272v-25.3248z" fill="#e6e6e6" p-id="8842"></path><path d="M514.22592 500.76032c0-4.65152-0.03328-8.20992 0.0128-11.76832 0.02688-2.07232 0.18304-4.14336 0.3072-6.80064 4.1344 0 7.91424-0.22784 11.65696 0.05632 5.02528 0.38144 8.64768 3.10016 8.80512 8.28928 0.14976 4.94592-2.8096 8.58624-7.72736 9.53216-3.87328 0.74496-7.9424 0.46464-13.05472 0.6912zM621.57056 529.632c-13.84704 0.10752-24.8896-10.69056-24.98688-24.44032-0.09984-13.8304 10.65984-24.80256 24.48256-24.96512 13.3504-0.15616 24.07296 10.70208 24.17024 24.48128 0.096 13.85984-10.30656 24.81664-23.66592 24.92416z" fill="#e6e6e6" p-id="8843"></path></svg>